<svg xmlns="http://www.w3.org/2000/svg" fill="white" viewBox="0 0 24 24"><path d="M12 .5C5.65.5.5 5.65.5 12c0 5.08 3.29 9.39 7.86 10.91.58.11.79-.25.79-.55v-2.1c-3.2.69-3.88-1.55-3.88-1.55-.53-1.34-1.3-1.7-1.3-1.7-1.06-.73.08-.72.08-.72 1.17.08 1.79 1.2 1.79 1.2 1.04 1.78 2.72 1.27 3.38.97.1-.76.41-1.28.74-1.57-2.56-.29-5.26-1.28-5.26-5.72 0-1.26.45-2.3 1.18-3.11-.12-.3-.52-1.49.11-3.11 0 0 .97-.31 3.17 1.18a11 11 0 0 1 5.76 0C18.86 5.5 19.83 5.81 19.83 5.81c.63 1.62.23 2.81.11 3.11.73.81 1.18 1.85 1.18 3.11 0 4.45-2.7 5.43-5.27 5.71.42.36.8 1.09.8 2.2v3.25c0 .3.21.66.8.55A10.97 10.97 0 0 0 23.5 12C23.5 5.65 18.35.5 12 .5z"/></svg>